<?xml version="1.0" encoding="utf-8"?>
<!--Designed by Vexels.com - 2018 All Rights Reserved - https://vexels.com/terms-and-conditions/-->
<svg version="1.1" id="Layer_1" xmlns="http://www.w3.org/2000/svg" xmlns:xlink="http://www.w3.org/1999/xlink" x="0px" y="0px"
	 viewBox="0 0 1200 1200" enable-background="new 0 0 1200 1200" xml:space="preserve">
<g>
	<path fill-rule="evenodd" clip-rule="evenodd" fill="#A8D381" d="M345.092,1017.36c2.973-0.783,6.016-1.165,9.042-1.165
		c5.913,0,11.772,1.478,17.059,4.347c69.797,38.081,148.881,58.216,228.676,58.234c152.359,0,296.979-73.745,387.07-197.255
		c91.533-125.511,115.773-285.52,66.529-439.025c-6.678-20.814-15.267-41.02-25.526-60.078l-0.019-0.017
		C949.77,237.086,814.653,143.986,659.171,125.006c-210.407,64.374-364.188,259.703-364.274,490.95
		c-0.042,90.632,23.637,179.091,68.637,257.073l-41.145,150.29L345.092,1017.36z"/>
	<g>
		<path fill="#2B2B2B" d="M857.185,678.822l-6.556-3.199c-0.747-0.383-75.64-37.611-91.533-43.419
			c-30.656-11.198-54.461-4.382-70.736,20.118c-5.235,7.842-19.805,25.545-30.448,38.081c-0.886-0.4-1.808-0.8-2.782-1.217
			c-16.953-7.355-48.514-21.04-85.291-53.834c-26.952-24.048-47.558-53.436-58.182-70.164c2.887-3.268,5.877-6.886,8.868-10.52
			l6.103-7.338c8.364-9.79,12.207-17.615,15.928-25.196l1.739-3.512c5.93-11.912,10.554-31.004-0.973-54.078
			c-2.557-5.408-13.807-32.882-24.153-58.061l-14.555-35.334c-12.311-29.577-31.508-43.958-59.608-43.958c-0.156,0-0.313,0-0.452,0
			c-7.998-0.383-17.179-0.486-26.362-0.486c-10.589,0-37.697,2.695-62.772,30.064c-15.581,16.64-52.061,55.573-52.061,128.814
			c0,67.607,41.628,130.362,61.103,156.462c38.306,54.948,119.424,154.393,232.328,203.151c30.883,13.336,55.07,21.492,76.58,28.308
			c19.318,6.138,39.315,9.198,60.511,9.198c11.773,0,23.909-0.956,36.482-2.817c32.186-4.816,98.124-37.108,114.991-84.352
			c8.225-23.023,18.415-68.198,4.487-91.412C881.772,690.717,869.27,684.665,857.185,678.822z M818.27,771.608
			c-4.626,12.971-41.246,35.263-58.426,37.819c-15.458,2.313-39.003,4.435-64.912-3.807c-19.771-6.278-41.924-13.738-69.902-25.805
			c-96.733-41.767-168.164-129.771-202.142-178.511l-3.043-4.277c-10.624-14.136-45.263-63.99-45.263-111.443
			c0-45.089,21.353-67.867,32.812-80.109l2.817-3.043c3.948-4.313,7.6-4.504,7.981-4.504c7.095,0,14.206,0.052,20.536,0.313
			c0.052,0.087,0.087,0.192,0.122,0.278l14.45,35.038c14.189,34.587,21.022,51.071,24.483,58.896
			c-2.243,4.555-3.095,6.016-5.251,8.554l-7.061,8.469c-3.617,4.399-7.146,8.833-10.293,11.963
			c-27.074,26.918-21.075,52.6-11.302,69.397c10.068,17.267,37.838,61.347,78.561,97.655
			c45.315,40.428,85.187,57.729,104.349,66.042c2.799,1.2,5.077,2.156,6.73,2.991c36.533,18.292,59.921,0.591,70.597-11.616
			c0.261-0.295,22.362-25.718,36.447-44.288c17.162,7.703,60.842,29.004,78.178,37.68l6.382,3.131
			C824.373,749.489,822.513,759.696,818.27,771.608z"/>
		<path fill="#2B2B2B" d="M1121.282,420.725c-8.016-24.935-18.309-49.193-30.621-72.059C990.121,161.721,806.724,50.07,600.078,50
			C297.013,50,50.357,296.622,50.252,599.757c-0.052,91.499,22.744,181.657,66.041,261.732l-45.663,166.844
			c-8.294,30.273-0.069,61.677,22.014,83.986c22.066,22.309,53.314,30.917,83.761,22.936l173.363-45.489
			c77.066,39.437,163.226,60.217,250.308,60.234c174.824,0,340.954-84.683,444.399-226.521
			C1149.573,779.397,1177.569,596.139,1121.282,420.725z M986.939,881.52c-90.091,123.511-234.71,197.255-387.07,197.255
			c-79.795-0.017-158.879-20.152-228.676-58.234c-5.286-2.87-11.146-4.347-17.059-4.347c-3.026,0-6.069,0.383-9.042,1.165
			l-186.753,49.001c-7.669,2.017-12.711-1.739-15.059-4.121c-2.364-2.4-6.033-7.53-3.964-15.094l49.521-180.893
			c2.521-9.181,1.253-18.971-3.495-27.213c-41.837-72.475-63.92-155.192-63.868-239.248
			c0.105-263.889,214.801-478.568,478.586-478.568c180.006,0.07,339.945,97.707,427.862,261.177l0.019,0.017
			c10.259,19.058,18.848,39.264,25.526,60.078C1102.712,596,1078.472,756.01,986.939,881.52z"/>
	</g>
</g>
</svg>
